# xmcd
# 
# Track frame offsets:
#     150
#     12972
#     31845
#     55602
#     74907
#     105475
#     115205
#     144602
#     180205
#     206945
#     219930
# 
# Disc length: 3119
# 
# Revision: 1
# Processed by: cddbd v1.5.2PL0 Copyright (c) Steve Scherf et al.
# Submitted via: BonkEnc v1.0.8
# 
DISCID=990c2d0b
DTITLE=藤井郷子 featuring Paul Bley - Something About Water
DYEAR=1995
DGENRE=Contemporary Jazz
TTITLE0=Something about water
TTITLE1=Stream
TTITLE2=The surface of it
TTITLE3=Thought about spring
TTITLE4=Shadow
TTITLE5=Light
TTITLE6=Thawings
TTITLE7=Strings
TTITLE8=Waiting
TTITLE9=Yad Nus
TTITLE10=Lake
EXTD=YEAR: 1996
EXTT0=
EXTT1=
EXTT2=
EXTT3=
EXTT4=
EXTT5=
EXTT6=
EXTT7=
EXTT8=
EXTT9=
EXTT10=
PLAYORDER=
